<?xml version="1.0" encoding="UTF-8"?><svg xmlns="http://www.w3.org/2000/svg" xmlns:xlink="http://www.w3.org/1999/xlink" fill-opacity="1" color-rendering="auto" color-interpolation="auto" text-rendering="auto" stroke="black" stroke-linecap="square" stroke-miterlimit="10" shape-rendering="auto" stroke-opacity="1" fill="black" stroke-dasharray="none" font-weight="normal" stroke-width="1" width="52.4em" height="25.8em" viewBox="0 0 524 258" font-family="'Dialog'" font-style="normal" stroke-linejoin="miter" font-size="12px" stroke-dashoffset="0" image-rendering="auto">
  <!--Generated by ySVG 2.5-->
  <defs id="genericDefs"/>
  <g>
    <defs id="defs1">
      <clipPath clipPathUnits="userSpaceOnUse" id="clipPath1">
        <path d="M0 0 L524 0 L524 258 L0 258 L0 0 Z"/>
      </clipPath>
      <clipPath clipPathUnits="userSpaceOnUse" id="clipPath2">
        <path d="M-39 265 L485 265 L485 523 L-39 523 L-39 265 Z"/>
      </clipPath>
    </defs>
    <g fill="white" text-rendering="geometricPrecision" shape-rendering="geometricPrecision" transform="translate(39,-265)" stroke="white">
      <rect x="-39" width="524" height="258" y="265" clip-path="url(#clipPath2)" stroke="none"/>
    </g>
    <g fill="rgb(204,255,204)" text-rendering="geometricPrecision" shape-rendering="geometricPrecision" transform="matrix(1,0,0,1,39,-265)" stroke="rgb(204,255,204)">
      <rect x="132" y="313" clip-path="url(#clipPath2)" width="182" rx="4" ry="4" height="76" stroke="none"/>
    </g>
    <g font-size="16px" stroke-linecap="butt" transform="matrix(1,0,0,1,39,-265)" text-rendering="geometricPrecision" font-family="sans-serif" shape-rendering="geometricPrecision" stroke-miterlimit="1.45">
      <text x="182.4219" xml:space="preserve" y="335.0859" clip-path="url(#clipPath2)" stroke="none">Процессор</text>
      <rect x="132" y="313" clip-path="url(#clipPath2)" fill="none" width="182" rx="4" ry="4" height="76"/>
    </g>
    <g fill="rgb(255,204,0)" text-rendering="geometricPrecision" shape-rendering="geometricPrecision" transform="matrix(1,0,0,1,39,-265)" stroke="rgb(255,204,0)">
      <rect x="142" width="75" height="30" y="349" clip-path="url(#clipPath2)" stroke="none"/>
    </g>
    <g text-rendering="geometricPrecision" stroke-miterlimit="1.45" shape-rendering="geometricPrecision" font-family="sans-serif" transform="matrix(1,0,0,1,39,-265)" stroke-linecap="butt">
      <text x="171.165" xml:space="preserve" y="368.7139" clip-path="url(#clipPath2)" stroke="none">PC</text>
      <rect fill="none" x="142" width="75" height="30" y="349" clip-path="url(#clipPath2)"/>
    </g>
    <g fill="rgb(255,255,153)" text-rendering="geometricPrecision" shape-rendering="geometricPrecision" transform="matrix(1,0,0,1,39,-265)" stroke="rgb(255,255,153)">
      <rect x="227" width="75" height="30" y="349" clip-path="url(#clipPath2)" stroke="none"/>
    </g>
    <g text-rendering="geometricPrecision" stroke-miterlimit="1.45" shape-rendering="geometricPrecision" font-family="sans-serif" transform="matrix(1,0,0,1,39,-265)" stroke-linecap="butt">
      <text x="256.165" xml:space="preserve" y="368.7139" clip-path="url(#clipPath2)" stroke="none">RS</text>
      <rect fill="none" x="227" width="75" height="30" y="349" clip-path="url(#clipPath2)"/>
    </g>
    <g fill="rgb(204,255,204)" text-rendering="geometricPrecision" shape-rendering="geometricPrecision" transform="matrix(1,0,0,1,39,-265)" stroke="rgb(204,255,204)">
      <path d="M-10.4001 280.5 L112 280.5 L98.3997 447.5 L-24 447.5 Z" fill-rule="evenodd" clip-path="url(#clipPath2)" stroke="none"/>
    </g>
    <g font-size="16px" stroke-linecap="butt" transform="matrix(1,0,0,1,39,-265)" text-rendering="geometricPrecision" font-family="sans-serif" shape-rendering="geometricPrecision" stroke-miterlimit="1.45">
      <text x="2.0859" xml:space="preserve" y="302.5859" clip-path="url(#clipPath2)" stroke="none">Программа</text>
      <path fill="none" d="M-10.4001 280.5 L112 280.5 L98.3997 447.5 L-24 447.5 Z" fill-rule="evenodd" clip-path="url(#clipPath2)"/>
    </g>
    <g fill="rgb(204,255,255)" text-rendering="geometricPrecision" shape-rendering="geometricPrecision" transform="matrix(1,0,0,1,39,-265)" stroke="rgb(204,255,255)">
      <rect x="-1.5" width="91" height="30" y="313" clip-path="url(#clipPath2)" stroke="none"/>
    </g>
    <g text-rendering="geometricPrecision" stroke-miterlimit="1.45" shape-rendering="geometricPrecision" font-family="sans-serif" transform="matrix(1,0,0,1,39,-265)" stroke-linecap="butt">
      <text x="7.584" xml:space="preserve" y="332.7139" clip-path="url(#clipPath2)" stroke="none">инструкция 0</text>
      <rect fill="none" x="-1.5" width="91" height="30" y="313" clip-path="url(#clipPath2)"/>
    </g>
    <g fill="rgb(204,255,255)" text-rendering="geometricPrecision" shape-rendering="geometricPrecision" transform="matrix(1,0,0,1,39,-265)" stroke="rgb(204,255,255)">
      <rect x="-1.5" width="91" height="30" y="343" clip-path="url(#clipPath2)" stroke="none"/>
    </g>
    <g text-rendering="geometricPrecision" stroke-miterlimit="1.45" shape-rendering="geometricPrecision" font-family="sans-serif" transform="matrix(1,0,0,1,39,-265)" stroke-linecap="butt">
      <text x="7.584" xml:space="preserve" y="362.7139" clip-path="url(#clipPath2)" stroke="none">инструкция 1</text>
      <rect fill="none" x="-1.5" width="91" height="30" y="343" clip-path="url(#clipPath2)"/>
    </g>
    <g fill="rgb(204,255,255)" text-rendering="geometricPrecision" shape-rendering="geometricPrecision" transform="matrix(1,0,0,1,39,-265)" stroke="rgb(204,255,255)">
      <rect x="-1.5" width="91" height="30" y="373" clip-path="url(#clipPath2)" stroke="none"/>
    </g>
    <g text-rendering="geometricPrecision" stroke-miterlimit="1.45" shape-rendering="geometricPrecision" font-family="sans-serif" transform="matrix(1,0,0,1,39,-265)" stroke-linecap="butt">
      <text x="38.999" xml:space="preserve" y="392.7139" clip-path="url(#clipPath2)" stroke="none">...</text>
      <rect fill="none" x="-1.5" width="91" height="30" y="373" clip-path="url(#clipPath2)"/>
    </g>
    <g fill="rgb(204,255,255)" text-rendering="geometricPrecision" shape-rendering="geometricPrecision" transform="matrix(1,0,0,1,39,-265)" stroke="rgb(204,255,255)">
      <rect x="-1.5" width="91" height="30" y="403" clip-path="url(#clipPath2)" stroke="none"/>
    </g>
    <g text-rendering="geometricPrecision" stroke-miterlimit="1.45" shape-rendering="geometricPrecision" font-family="sans-serif" transform="matrix(1,0,0,1,39,-265)" stroke-linecap="butt">
      <text x="7.584" xml:space="preserve" y="422.7139" clip-path="url(#clipPath2)" stroke="none">инструкция n</text>
      <rect fill="none" x="-1.5" width="91" height="30" y="403" clip-path="url(#clipPath2)"/>
    </g>
    <g fill="rgb(204,255,204)" text-rendering="geometricPrecision" shape-rendering="geometricPrecision" transform="matrix(1,0,0,1,39,-265)" stroke="rgb(204,255,204)">
      <path d="M347.6 280.5 L470 280.5 L456.4 447.5 L334 447.5 Z" fill-rule="evenodd" clip-path="url(#clipPath2)" stroke="none"/>
    </g>
    <g font-size="16px" stroke-linecap="butt" transform="matrix(1,0,0,1,39,-265)" text-rendering="geometricPrecision" font-family="sans-serif" shape-rendering="geometricPrecision" stroke-miterlimit="1.45">
      <text x="374.1367" xml:space="preserve" y="302.5859" clip-path="url(#clipPath2)" stroke="none">Память</text>
      <path fill="none" d="M347.6 280.5 L470 280.5 L456.4 447.5 L334 447.5 Z" fill-rule="evenodd" clip-path="url(#clipPath2)"/>
    </g>
    <g fill="rgb(255,231,142)" text-rendering="geometricPrecision" shape-rendering="geometricPrecision" transform="matrix(1,0,0,1,39,-265)" stroke="rgb(255,231,142)">
      <rect x="356.5" width="91" height="30" y="313" clip-path="url(#clipPath2)" stroke="none"/>
    </g>
    <g text-rendering="geometricPrecision" stroke-miterlimit="1.45" shape-rendering="geometricPrecision" font-family="sans-serif" transform="matrix(1,0,0,1,39,-265)" stroke-linecap="butt">
      <text x="375.6973" xml:space="preserve" y="332.7139" clip-path="url(#clipPath2)" stroke="none">регистр 0</text>
      <rect fill="none" x="356.5" width="91" height="30" y="313" clip-path="url(#clipPath2)"/>
    </g>
    <g fill="rgb(255,231,142)" text-rendering="geometricPrecision" shape-rendering="geometricPrecision" transform="matrix(1,0,0,1,39,-265)" stroke="rgb(255,231,142)">
      <rect x="356.5" width="91" height="30" y="343" clip-path="url(#clipPath2)" stroke="none"/>
    </g>
    <g text-rendering="geometricPrecision" stroke-miterlimit="1.45" shape-rendering="geometricPrecision" font-family="sans-serif" transform="matrix(1,0,0,1,39,-265)" stroke-linecap="butt">
      <text x="375.6973" xml:space="preserve" y="362.7139" clip-path="url(#clipPath2)" stroke="none">регистр 1</text>
      <rect fill="none" x="356.5" width="91" height="30" y="343" clip-path="url(#clipPath2)"/>
    </g>
    <g fill="rgb(255,231,142)" text-rendering="geometricPrecision" shape-rendering="geometricPrecision" transform="matrix(1,0,0,1,39,-265)" stroke="rgb(255,231,142)">
      <rect x="356.5" width="91" height="30" y="373" clip-path="url(#clipPath2)" stroke="none"/>
    </g>
    <g text-rendering="geometricPrecision" stroke-miterlimit="1.45" shape-rendering="geometricPrecision" font-family="sans-serif" transform="matrix(1,0,0,1,39,-265)" stroke-linecap="butt">
      <text x="396.999" xml:space="preserve" y="392.7139" clip-path="url(#clipPath2)" stroke="none">...</text>
      <rect fill="none" x="356.5" width="91" height="30" y="373" clip-path="url(#clipPath2)"/>
    </g>
    <g fill="rgb(255,231,142)" text-rendering="geometricPrecision" shape-rendering="geometricPrecision" transform="matrix(1,0,0,1,39,-265)" stroke="rgb(255,231,142)">
      <rect x="356.5" width="91" height="30" y="403" clip-path="url(#clipPath2)" stroke="none"/>
    </g>
    <g text-rendering="geometricPrecision" stroke-miterlimit="1.45" shape-rendering="geometricPrecision" font-family="sans-serif" transform="matrix(1,0,0,1,39,-265)" stroke-linecap="butt">
      <text x="374.0361" xml:space="preserve" y="422.7139" clip-path="url(#clipPath2)" stroke="none">регистр m</text>
      <rect fill="none" x="356.5" width="91" height="30" y="403" clip-path="url(#clipPath2)"/>
      <text x="61.7793" xml:space="preserve" y="497.2139" clip-path="url(#clipPath2)" stroke="none">шина команд</text>
      <text x="311.2402" xml:space="preserve" y="497.2139" clip-path="url(#clipPath2)" stroke="none">шина данных</text>
      <path fill="none" d="M142 364 L113.2021 364" clip-path="url(#clipPath2)"/>
      <path d="M105.2021 364 L117.2021 369 L114.2021 364 L117.2021 359 Z" clip-path="url(#clipPath2)" stroke="none"/>
      <path fill="none" d="M44 447.5161 L44 482 L143 482 L195.6078 395.8546" clip-path="url(#clipPath2)"/>
      <path d="M199.7773 389.0271 L189.2559 396.6625 L195.0867 396.7081 L197.7903 401.8744 Z" clip-path="url(#clipPath2)" stroke="none"/>
      <path fill="none" d="M302 364 L332.8184 364" clip-path="url(#clipPath2)"/>
      <path d="M340.8184 364 L328.8184 359 L331.8184 364 L328.8184 369 Z" clip-path="url(#clipPath2)" stroke="none"/>
      <path fill="none" d="M249.3993 397.734 L297 482 L402 482 L402 457.5161" stroke-width="3" clip-path="url(#clipPath2)"/>
      <path d="M244.481 389.0271 L246.4167 405.1614 L250.0141 398.8223 L257.3003 399.0134 Z" stroke-width="3" clip-path="url(#clipPath2)" stroke="none"/>
      <path d="M402 447.5161 L395.75 462.5161 L402 458.7661 L408.25 462.5161 Z" stroke-width="3" clip-path="url(#clipPath2)" stroke="none"/>
    </g>
  </g>
</svg>
