<?xml version="1.0" encoding="UTF-8"?><svg xmlns="http://www.w3.org/2000/svg" xmlns:xlink="http://www.w3.org/1999/xlink" fill-opacity="1" color-rendering="auto" color-interpolation="auto" text-rendering="auto" stroke="black" stroke-linecap="square" stroke-miterlimit="10" shape-rendering="auto" stroke-opacity="1" fill="black" stroke-dasharray="none" font-weight="normal" stroke-width="1" width="72.9em" height="37em" viewBox="0 0 729 370" font-family="'Dialog'" font-style="normal" stroke-linejoin="miter" font-size="12px" stroke-dashoffset="0" image-rendering="auto">
  <!--Generated by ySVG 2.5-->
  <defs id="genericDefs"/>
  <g>
    <defs id="defs1">
      <clipPath clipPathUnits="userSpaceOnUse" id="clipPath1">
        <path d="M0 0 L729 0 L729 370 L0 370 L0 0 Z"/>
      </clipPath>
      <clipPath clipPathUnits="userSpaceOnUse" id="clipPath2">
        <path d="M26 54 L755 54 L755 424 L26 424 L26 54 Z"/>
      </clipPath>
    </defs>
    <g fill="white" text-rendering="geometricPrecision" shape-rendering="geometricPrecision" transform="translate(-26,-54)" stroke="white">
      <rect x="26" width="729" height="370" y="54" clip-path="url(#clipPath2)" stroke="none"/>
    </g>
    <g fill="rgb(255,204,0)" text-rendering="geometricPrecision" shape-rendering="geometricPrecision" transform="matrix(1,0,0,1,-26,-54)" stroke="rgb(255,204,0)">
      <rect x="150" width="113" height="32" y="146" clip-path="url(#clipPath2)" stroke="none"/>
    </g>
    <g text-rendering="geometricPrecision" stroke-miterlimit="1.45" shape-rendering="geometricPrecision" font-family="sans-serif" transform="matrix(1,0,0,1,-26,-54)" stroke-linecap="butt">
      <text x="161.5732" xml:space="preserve" y="166.7139" clip-path="url(#clipPath2)" stroke="none">Ячейка-автомат</text>
      <rect fill="none" x="150" width="113" height="32" y="146" clip-path="url(#clipPath2)"/>
    </g>
    <g fill="rgb(255,204,0)" text-rendering="geometricPrecision" shape-rendering="geometricPrecision" transform="matrix(1,0,0,1,-26,-54)" stroke="rgb(255,204,0)">
      <rect x="150" width="113" height="32" y="223" clip-path="url(#clipPath2)" stroke="none"/>
    </g>
    <g text-rendering="geometricPrecision" stroke-miterlimit="1.45" shape-rendering="geometricPrecision" font-family="sans-serif" transform="matrix(1,0,0,1,-26,-54)" stroke-linecap="butt">
      <text x="161.5732" xml:space="preserve" y="243.7139" clip-path="url(#clipPath2)" stroke="none">Ячейка-автомат</text>
      <rect fill="none" x="150" width="113" height="32" y="223" clip-path="url(#clipPath2)"/>
    </g>
    <g fill="rgb(255,204,0)" text-rendering="geometricPrecision" shape-rendering="geometricPrecision" transform="matrix(1,0,0,1,-26,-54)" stroke="rgb(255,204,0)">
      <rect x="150" width="113" height="32" y="300" clip-path="url(#clipPath2)" stroke="none"/>
    </g>
    <g text-rendering="geometricPrecision" stroke-miterlimit="1.45" shape-rendering="geometricPrecision" font-family="sans-serif" transform="matrix(1,0,0,1,-26,-54)" stroke-linecap="butt">
      <text x="161.5732" xml:space="preserve" y="320.7139" clip-path="url(#clipPath2)" stroke="none">Ячейка-автомат</text>
      <rect fill="none" x="150" width="113" height="32" y="300" clip-path="url(#clipPath2)"/>
    </g>
    <g fill="rgb(255,204,0)" text-rendering="geometricPrecision" shape-rendering="geometricPrecision" transform="matrix(1,0,0,1,-26,-54)" stroke="rgb(255,204,0)">
      <rect x="334" width="113" height="32" y="146" clip-path="url(#clipPath2)" stroke="none"/>
    </g>
    <g text-rendering="geometricPrecision" stroke-miterlimit="1.45" shape-rendering="geometricPrecision" font-family="sans-serif" transform="matrix(1,0,0,1,-26,-54)" stroke-linecap="butt">
      <text x="345.5732" xml:space="preserve" y="166.7139" clip-path="url(#clipPath2)" stroke="none">Ячейка-автомат</text>
      <rect fill="none" x="334" width="113" height="32" y="146" clip-path="url(#clipPath2)"/>
    </g>
    <g fill="rgb(255,204,0)" text-rendering="geometricPrecision" shape-rendering="geometricPrecision" transform="matrix(1,0,0,1,-26,-54)" stroke="rgb(255,204,0)">
      <rect x="334" width="113" height="32" y="223" clip-path="url(#clipPath2)" stroke="none"/>
    </g>
    <g text-rendering="geometricPrecision" stroke-miterlimit="1.45" shape-rendering="geometricPrecision" font-family="sans-serif" transform="matrix(1,0,0,1,-26,-54)" stroke-linecap="butt">
      <text x="345.5732" xml:space="preserve" y="243.7139" clip-path="url(#clipPath2)" stroke="none">Ячейка-автомат</text>
      <rect fill="none" x="334" width="113" height="32" y="223" clip-path="url(#clipPath2)"/>
    </g>
    <g fill="rgb(255,204,0)" text-rendering="geometricPrecision" shape-rendering="geometricPrecision" transform="matrix(1,0,0,1,-26,-54)" stroke="rgb(255,204,0)">
      <rect x="334" width="113" height="32" y="300" clip-path="url(#clipPath2)" stroke="none"/>
    </g>
    <g text-rendering="geometricPrecision" stroke-miterlimit="1.45" shape-rendering="geometricPrecision" font-family="sans-serif" transform="matrix(1,0,0,1,-26,-54)" stroke-linecap="butt">
      <text x="345.5732" xml:space="preserve" y="320.7139" clip-path="url(#clipPath2)" stroke="none">Ячейка-автомат</text>
      <rect fill="none" x="334" width="113" height="32" y="300" clip-path="url(#clipPath2)"/>
    </g>
    <g fill="rgb(255,204,0)" text-rendering="geometricPrecision" shape-rendering="geometricPrecision" transform="matrix(1,0,0,1,-26,-54)" stroke="rgb(255,204,0)">
      <rect x="518" width="113" height="32" y="146" clip-path="url(#clipPath2)" stroke="none"/>
    </g>
    <g text-rendering="geometricPrecision" stroke-miterlimit="1.45" shape-rendering="geometricPrecision" font-family="sans-serif" transform="matrix(1,0,0,1,-26,-54)" stroke-linecap="butt">
      <text x="529.5732" xml:space="preserve" y="166.7139" clip-path="url(#clipPath2)" stroke="none">Ячейка-автомат</text>
      <rect fill="none" x="518" width="113" height="32" y="146" clip-path="url(#clipPath2)"/>
    </g>
    <g fill="rgb(255,204,0)" text-rendering="geometricPrecision" shape-rendering="geometricPrecision" transform="matrix(1,0,0,1,-26,-54)" stroke="rgb(255,204,0)">
      <rect x="518" width="113" height="32" y="223" clip-path="url(#clipPath2)" stroke="none"/>
    </g>
    <g text-rendering="geometricPrecision" stroke-miterlimit="1.45" shape-rendering="geometricPrecision" font-family="sans-serif" transform="matrix(1,0,0,1,-26,-54)" stroke-linecap="butt">
      <text x="529.5732" xml:space="preserve" y="243.7139" clip-path="url(#clipPath2)" stroke="none">Ячейка-автомат</text>
      <rect fill="none" x="518" width="113" height="32" y="223" clip-path="url(#clipPath2)"/>
    </g>
    <g fill="rgb(255,204,0)" text-rendering="geometricPrecision" shape-rendering="geometricPrecision" transform="matrix(1,0,0,1,-26,-54)" stroke="rgb(255,204,0)">
      <rect x="518" width="113" height="32" y="300" clip-path="url(#clipPath2)" stroke="none"/>
    </g>
    <g text-rendering="geometricPrecision" stroke-miterlimit="1.45" shape-rendering="geometricPrecision" font-family="sans-serif" transform="matrix(1,0,0,1,-26,-54)" stroke-linecap="butt">
      <text x="529.5732" xml:space="preserve" y="320.7139" clip-path="url(#clipPath2)" stroke="none">Ячейка-автомат</text>
      <rect fill="none" x="518" width="113" height="32" y="300" clip-path="url(#clipPath2)"/>
      <text x="715.999" xml:space="preserve" y="166.7139" clip-path="url(#clipPath2)" stroke="none">...</text>
      <text x="715.999" xml:space="preserve" y="243.7139" clip-path="url(#clipPath2)" stroke="none">...</text>
      <text x="715.999" xml:space="preserve" y="320.7139" clip-path="url(#clipPath2)" stroke="none">...</text>
      <text x="54.999" xml:space="preserve" y="166.7139" clip-path="url(#clipPath2)" stroke="none">...</text>
      <text x="54.999" xml:space="preserve" y="243.7139" clip-path="url(#clipPath2)" stroke="none">...</text>
      <text x="54.999" xml:space="preserve" y="320.7139" clip-path="url(#clipPath2)" stroke="none">...</text>
      <text x="201.7305" xml:space="preserve" y="397.7139" clip-path="url(#clipPath2)" stroke="none">⋮</text>
      <text x="385.7305" xml:space="preserve" y="397.7139" clip-path="url(#clipPath2)" stroke="none">⋮</text>
      <text x="569.7305" xml:space="preserve" y="397.7139" clip-path="url(#clipPath2)" stroke="none">⋮</text>
      <text x="201.7305" xml:space="preserve" y="89.7139" clip-path="url(#clipPath2)" stroke="none">⋮</text>
      <text x="385.7305" xml:space="preserve" y="89.7139" clip-path="url(#clipPath2)" stroke="none">⋮</text>
      <text x="569.7305" xml:space="preserve" y="89.7139" clip-path="url(#clipPath2)" stroke="none">⋮</text>
      <path fill="none" d="M206.5 186 L206.5 215" clip-path="url(#clipPath2)"/>
      <path d="M206.5 178 L201.5 190 L206.5 187 L211.5 190 Z" clip-path="url(#clipPath2)" stroke="none"/>
      <path d="M206.5 223 L211.5 211 L206.5 214 L201.5 211 Z" clip-path="url(#clipPath2)" stroke="none"/>
      <path fill="none" d="M206.5 292 L206.5 263" clip-path="url(#clipPath2)"/>
      <path d="M206.5 300 L211.5 288 L206.5 291 L201.5 288 Z" clip-path="url(#clipPath2)" stroke="none"/>
      <path d="M206.5 255 L201.5 267 L206.5 264 L211.5 267 Z" clip-path="url(#clipPath2)" stroke="none"/>
      <path fill="none" d="M271 162 L326 162" clip-path="url(#clipPath2)"/>
      <path d="M263 162 L275 167 L272 162 L275 157 Z" clip-path="url(#clipPath2)" stroke="none"/>
      <path d="M334 162 L322 157 L325 162 L322 167 Z" clip-path="url(#clipPath2)" stroke="none"/>
      <path fill="none" d="M390.5 186 L390.5 215" clip-path="url(#clipPath2)"/>
      <path d="M390.5 178 L385.5 190 L390.5 187 L395.5 190 Z" clip-path="url(#clipPath2)" stroke="none"/>
      <path d="M390.5 223 L395.5 211 L390.5 214 L385.5 211 Z" clip-path="url(#clipPath2)" stroke="none"/>
      <path fill="none" d="M326 239 L271 239" clip-path="url(#clipPath2)"/>
      <path d="M334 239 L322 234 L325 239 L322 244 Z" clip-path="url(#clipPath2)" stroke="none"/>
      <path d="M263 239 L275 244 L272 239 L275 234 Z" clip-path="url(#clipPath2)" stroke="none"/>
      <path fill="none" d="M390.5 263 L390.5 292" clip-path="url(#clipPath2)"/>
      <path d="M390.5 255 L385.5 267 L390.5 264 L395.5 267 Z" clip-path="url(#clipPath2)" stroke="none"/>
      <path d="M390.5 300 L395.5 288 L390.5 291 L385.5 288 Z" clip-path="url(#clipPath2)" stroke="none"/>
      <path fill="none" d="M271 316 L326 316" clip-path="url(#clipPath2)"/>
      <path d="M263 316 L275 321 L272 316 L275 311 Z" clip-path="url(#clipPath2)" stroke="none"/>
      <path d="M334 316 L322 311 L325 316 L322 321 Z" clip-path="url(#clipPath2)" stroke="none"/>
      <path fill="none" d="M455 162 L510 162" clip-path="url(#clipPath2)"/>
      <path d="M447 162 L459 167 L456 162 L459 157 Z" clip-path="url(#clipPath2)" stroke="none"/>
      <path d="M518 162 L506 157 L509 162 L506 167 Z" clip-path="url(#clipPath2)" stroke="none"/>
      <path fill="none" d="M455 239 L510 239" clip-path="url(#clipPath2)"/>
      <path d="M447 239 L459 244 L456 239 L459 234 Z" clip-path="url(#clipPath2)" stroke="none"/>
      <path d="M518 239 L506 234 L509 239 L506 244 Z" clip-path="url(#clipPath2)" stroke="none"/>
      <path fill="none" d="M574.5 215 L574.5 186" clip-path="url(#clipPath2)"/>
      <path d="M574.5 223 L579.5 211 L574.5 214 L569.5 211 Z" clip-path="url(#clipPath2)" stroke="none"/>
      <path d="M574.5 178 L569.5 190 L574.5 187 L579.5 190 Z" clip-path="url(#clipPath2)" stroke="none"/>
      <path fill="none" d="M455 316 L510 316" clip-path="url(#clipPath2)"/>
      <path d="M447 316 L459 321 L456 316 L459 311 Z" clip-path="url(#clipPath2)" stroke="none"/>
      <path d="M518 316 L506 311 L509 316 L506 321 Z" clip-path="url(#clipPath2)" stroke="none"/>
      <path fill="none" d="M574.5 292 L574.5 263" clip-path="url(#clipPath2)"/>
      <path d="M574.5 300 L579.5 288 L574.5 291 L569.5 288 Z" clip-path="url(#clipPath2)" stroke="none"/>
      <path d="M574.5 255 L569.5 267 L574.5 264 L579.5 267 Z" clip-path="url(#clipPath2)" stroke="none"/>
      <path fill="none" d="M639 162 L694 162" clip-path="url(#clipPath2)"/>
      <path d="M631 162 L643 167 L640 162 L643 157 Z" clip-path="url(#clipPath2)" stroke="none"/>
      <path d="M702 162 L690 157 L693 162 L690 167 Z" clip-path="url(#clipPath2)" stroke="none"/>
      <path fill="none" d="M639 239 L694 239" clip-path="url(#clipPath2)"/>
      <path d="M631 239 L643 244 L640 239 L643 234 Z" clip-path="url(#clipPath2)" stroke="none"/>
      <path d="M702 239 L690 234 L693 239 L690 244 Z" clip-path="url(#clipPath2)" stroke="none"/>
      <path fill="none" d="M639 316 L694 316" clip-path="url(#clipPath2)"/>
      <path d="M631 316 L643 321 L640 316 L643 311 Z" clip-path="url(#clipPath2)" stroke="none"/>
      <path d="M702 316 L690 311 L693 316 L690 321 Z" clip-path="url(#clipPath2)" stroke="none"/>
      <path fill="none" d="M87 162 L142 162" clip-path="url(#clipPath2)"/>
      <path d="M79 162 L91 167 L88 162 L91 157 Z" clip-path="url(#clipPath2)" stroke="none"/>
      <path d="M150 162 L138 157 L141 162 L138 167 Z" clip-path="url(#clipPath2)" stroke="none"/>
      <path fill="none" d="M87 239 L142 239" clip-path="url(#clipPath2)"/>
      <path d="M79 239 L91 244 L88 239 L91 234 Z" clip-path="url(#clipPath2)" stroke="none"/>
      <path d="M150 239 L138 234 L141 239 L138 244 Z" clip-path="url(#clipPath2)" stroke="none"/>
      <path fill="none" d="M87 316 L142 316" clip-path="url(#clipPath2)"/>
      <path d="M79 316 L91 321 L88 316 L91 311 Z" clip-path="url(#clipPath2)" stroke="none"/>
      <path d="M150 316 L138 311 L141 316 L138 321 Z" clip-path="url(#clipPath2)" stroke="none"/>
      <path fill="none" d="M206.5 340 L206.5 369" clip-path="url(#clipPath2)"/>
      <path d="M206.5 332 L201.5 344 L206.5 341 L211.5 344 Z" clip-path="url(#clipPath2)" stroke="none"/>
      <path d="M206.5 377 L211.5 365 L206.5 368 L201.5 365 Z" clip-path="url(#clipPath2)" stroke="none"/>
      <path fill="none" d="M390.5 340 L390.5 369" clip-path="url(#clipPath2)"/>
      <path d="M390.5 332 L385.5 344 L390.5 341 L395.5 344 Z" clip-path="url(#clipPath2)" stroke="none"/>
      <path d="M390.5 377 L395.5 365 L390.5 368 L385.5 365 Z" clip-path="url(#clipPath2)" stroke="none"/>
      <path fill="none" d="M574.5 340 L574.5 369" clip-path="url(#clipPath2)"/>
      <path d="M574.5 332 L569.5 344 L574.5 341 L579.5 344 Z" clip-path="url(#clipPath2)" stroke="none"/>
      <path d="M574.5 377 L579.5 365 L574.5 368 L569.5 365 Z" clip-path="url(#clipPath2)" stroke="none"/>
      <path fill="none" d="M206.5 138 L206.5 109" clip-path="url(#clipPath2)"/>
      <path d="M206.5 146 L211.5 134 L206.5 137 L201.5 134 Z" clip-path="url(#clipPath2)" stroke="none"/>
      <path d="M206.5 101 L201.5 113 L206.5 110 L211.5 113 Z" clip-path="url(#clipPath2)" stroke="none"/>
      <path fill="none" d="M390.5 138 L390.5 109" clip-path="url(#clipPath2)"/>
      <path d="M390.5 146 L395.5 134 L390.5 137 L385.5 134 Z" clip-path="url(#clipPath2)" stroke="none"/>
      <path d="M390.5 101 L385.5 113 L390.5 110 L395.5 113 Z" clip-path="url(#clipPath2)" stroke="none"/>
      <path fill="none" d="M574.5 138 L574.5 109" clip-path="url(#clipPath2)"/>
      <path d="M574.5 146 L579.5 134 L574.5 137 L569.5 134 Z" clip-path="url(#clipPath2)" stroke="none"/>
      <path d="M574.5 101 L569.5 113 L574.5 110 L579.5 113 Z" clip-path="url(#clipPath2)" stroke="none"/>
    </g>
  </g>
</svg>
