<?xml version="1.0" encoding="UTF-8"?><svg xmlns="http://www.w3.org/2000/svg" xmlns:xlink="http://www.w3.org/1999/xlink" fill-opacity="1" color-rendering="auto" color-interpolation="auto" text-rendering="auto" stroke="black" stroke-linecap="square" stroke-miterlimit="10" shape-rendering="auto" stroke-opacity="1" fill="black" stroke-dasharray="none" font-weight="normal" stroke-width="1" width="38.8em" height="25em" viewBox="0 0 388 250" font-family="'Dialog'" font-style="normal" stroke-linejoin="miter" font-size="12px" stroke-dashoffset="0" image-rendering="auto">
  <!--Generated by ySVG 2.5-->
  <defs id="genericDefs"/>
  <g>
    <defs id="defs1">
      <clipPath clipPathUnits="userSpaceOnUse" id="clipPath1">
        <path d="M0 0 L388 0 L388 250 L0 250 L0 0 Z"/>
      </clipPath>
      <clipPath clipPathUnits="userSpaceOnUse" id="clipPath2">
        <path d="M230 184 L618 184 L618 434 L230 434 L230 184 Z"/>
      </clipPath>
      <clipPath clipPathUnits="userSpaceOnUse" id="clipPath3">
        <path d="M0 0 L0 18 L47 18 L47 0 Z"/>
      </clipPath>
      <script type="text/ecmascript"><![CDATA[      var SVGDocument = null;
      var SVGRoot = null;
      var TrueCoords = null;
      var lastElement = null;
      var initialized = null;
      var tipGroup;
      function Init(evt)
      {
         SVGDocument = evt.target.ownerDocument;
         SVGRoot = SVGDocument.documentElement;
         TrueCoords = SVGRoot.createSVGPoint();
         initialized = evt;
      };
      function GetTrueCoords(evt)
      {
         var newScale = SVGRoot.currentScale;
         var translation = SVGRoot.currentTranslate;
         TrueCoords.x = (evt.clientX - translation.x)/newScale;
         TrueCoords.y = (evt.clientY - translation.y)/newScale;
      };
      function HideTooltip( evt )
      {
         if(initialized == null) {
           Init(evt);
         }
         if(tipGroup != null) {
           tipGroup.setAttributeNS(null, 'visibility', 'hidden');
         }
      };
      function ShowTooltip( evt )
      {
         if(initialized == null) {
           Init(evt);
         }
         GetTrueCoords( evt );
         var tipScale = 1/SVGRoot.currentScale;
         var targetElement = evt.currentTarget;
         if ( lastElement != targetElement )
         {
            var targetId = targetElement.getAttributeNS(null, 'id');
            var tipId = 'tooltip.' + targetId;
            tipGroup = SVGDocument.getElementById(tipId);
            var xPos = TrueCoords.x + (10 * tipScale);
            var yPos = TrueCoords.y + (10 * tipScale);
            tipGroup.setAttributeNS(null, 'transform', 'translate(' + xPos + ',' + yPos + ') scale(' + tipScale + ')');
            tipGroup.setAttributeNS(null, 'visibility', 'visible');
         }
      };
]]></script>
    </defs>
    <g fill="white" text-rendering="geometricPrecision" shape-rendering="geometricPrecision" transform="translate(-230,-184)" stroke="white">
      <rect x="230" width="388" height="250" y="184" clip-path="url(#clipPath2)" stroke="none"/>
    </g>
    <g id="y.node.0">
      <g fill="rgb(153,51,0)" text-rendering="geometricPrecision" shape-rendering="geometricPrecision" transform="matrix(1,0,0,1,-230,-184)" stroke="rgb(153,51,0)">
        <path d="M365 344 L500 344 L485 419 L350 419 Z" stroke="none" fill-rule="evenodd"/>
      </g>
      <g/>
      <g stroke-linecap="butt" transform="matrix(1,0,0,1,-230,-184)" fill="rgb(153,51,0)" text-rendering="geometricPrecision" shape-rendering="geometricPrecision" stroke="rgb(153,51,0)" stroke-miterlimit="1.45">
        <path fill="none" d="M365 344 L500 344 L485 419 L350 419 Z" fill-rule="evenodd"/>
      </g>
    </g>
    <g id="y.node.1">
      <g fill="rgb(255,204,0)" text-rendering="geometricPrecision" shape-rendering="geometricPrecision" transform="matrix(1,0,0,1,-230,-184)" stroke="rgb(255,204,0)">
        <rect x="365" width="110" height="46" y="260" stroke="none"/>
      </g>
      <g>
        <g font-size="16px" stroke-linecap="butt" transform="matrix(1,0,0,1,-230,-184)" text-rendering="geometricPrecision" font-family="sans-serif" shape-rendering="geometricPrecision" stroke-miterlimit="1.45">
          <text x="388.6875" xml:space="preserve" y="289.2852" stroke="none">Автомат</text>
        </g>
      </g>
      <g text-rendering="geometricPrecision" stroke-miterlimit="1.45" shape-rendering="geometricPrecision" transform="matrix(1,0,0,1,-230,-184)" stroke-linecap="butt">
        <rect fill="none" x="365" width="110" height="46" y="260"/>
      </g>
    </g>
    <g id="y.node.2">
      <g>
        <g font-size="16px" stroke-linecap="butt" transform="matrix(1,0,0,1,-230,-184)" text-rendering="geometricPrecision" font-family="sans-serif" shape-rendering="geometricPrecision" stroke-miterlimit="1.45">
          <text x="381.7695" xml:space="preserve" y="217.7852" stroke="none">состояние</text>
        </g>
      </g>
    </g>
    <g id="y.node.3">
      <g fill="rgb(255,204,0)" text-rendering="geometricPrecision" shape-rendering="geometricPrecision" transform="matrix(1,0,0,1,-230,-184)" stroke="rgb(255,204,0)">
        <path d="M360 340 L495 340 L480 415 L345 415 Z" stroke="none" fill-rule="evenodd"/>
      </g>
      <g>
        <g font-size="15px" stroke-linecap="butt" transform="matrix(1,0,0,1,-230,-184)" text-rendering="geometricPrecision" font-family="sans-serif" shape-rendering="geometricPrecision" stroke-miterlimit="1.45">
          <text x="365.2698" xml:space="preserve" y="374.2041" stroke="none">Запоминающее</text>
        </g>
        <g font-size="15px" stroke-linecap="butt" transform="matrix(1,0,0,1,-230,-184)" text-rendering="geometricPrecision" font-family="sans-serif" shape-rendering="geometricPrecision" stroke-miterlimit="1.45">
          <text x="381.1926" xml:space="preserve" y="392.5806" stroke="none">устройство</text>
        </g>
      </g>
      <g text-rendering="geometricPrecision" stroke-miterlimit="1.45" shape-rendering="geometricPrecision" transform="matrix(1,0,0,1,-230,-184)" stroke-linecap="butt">
        <path fill="none" d="M360 340 L495 340 L480 415 L345 415 Z" fill-rule="evenodd"/>
      </g>
    </g>
    <g id="y.node.4">
      <g>
        <g font-size="16px" stroke-linecap="butt" transform="matrix(1,0,0,1,-230,-184)" text-rendering="geometricPrecision" font-family="sans-serif" shape-rendering="geometricPrecision" stroke-miterlimit="1.45">
          <text x="535.4141" xml:space="preserve" y="329.2852" stroke="none">запись</text>
        </g>
      </g>
    </g>
    <g id="y.node.5">
      <g>
        <g font-size="16px" stroke-linecap="butt" transform="matrix(1,0,0,1,-230,-184)" text-rendering="geometricPrecision" font-family="sans-serif" shape-rendering="geometricPrecision" stroke-miterlimit="1.45">
          <text x="261.8828" xml:space="preserve" y="329.2852" stroke="none">чтение</text>
        </g>
      </g>
    </g>
    <g id="y.edge.0">
      <g text-rendering="geometricPrecision" stroke-miterlimit="1.45" shape-rendering="geometricPrecision" transform="matrix(1,0,0,1,-230,-184)" stroke-linecap="butt">
        <path fill="none" d="M447.4978 259.9817 L448 255 L447.4312 249.357 L445.7996 244.1011 L443.218 239.3449 L439.799 235.201 L435.6551 231.782 L430.8989 229.2004 L425.643 227.5689 L420 227 L414.357 227.5689 L409.1011 229.2004 L404.3449 231.782 L400.201 235.201 L396.782 239.3449 L394.2004 244.1011 L392.5688 249.357 L392.304 251.9841 L392.3141 252.0836"/>
        <path d="M392.5046 260.0814 L397.2174 247.9657 L392.2903 251.0839 L387.2202 248.2039 Z" stroke="none"/>
      </g>
    </g>
    <g onmouseout="HideTooltip(evt)" id="y.edge.1" onmousemove="ShowTooltip(evt)">
      <g text-rendering="geometricPrecision" stroke-miterlimit="1.45" shape-rendering="geometricPrecision" transform="matrix(1,0,0,1,-230,-184)" stroke-linecap="butt">
        <path fill="none" d="M475 283 L528 283 L528 377.5 L495.4736 377.5"/>
        <path d="M487.4736 377.5 L499.4736 382.5 L496.4736 377.5 L499.4736 372.5 Z" stroke="none"/>
      </g>
      <g/>
    </g>
    <g id="y.edge.2">
      <g text-rendering="geometricPrecision" stroke-miterlimit="1.45" shape-rendering="geometricPrecision" transform="matrix(1,0,0,1,-230,-184)" stroke-linecap="butt">
        <path fill="none" d="M352.4858 377.5 L319 377.5 L319 283 L357 283"/>
        <path d="M365 283 L353 278 L356 283 L353 288 Z" stroke="none"/>
      </g>
    </g>
    <g visibility="hidden" id="tooltip.y.edge.1" pointer-events="none">
      <g fill="rgb(255,255,225)" text-rendering="geometricPrecision" shape-rendering="geometricPrecision" font-family="'Segoe UI'" stroke="rgb(255,255,225)">
        <rect x="0" width="47" height="18" y="0" clip-path="url(#clipPath3)" stroke="none"/>
        <text fill="black" x="4" xml:space="preserve" y="14" clip-path="url(#clipPath3)" stroke="none">Запись</text>
      </g>
      <g font-family="'Segoe UI'" text-rendering="geometricPrecision" shape-rendering="geometricPrecision">
        <path d="M0 0 L47 0 L47 18 L0 18 L0 0 ZM1 1 L46 1 L46 17 L1 17 L1 1 Z" fill-rule="evenodd" clip-path="url(#clipPath3)" stroke="none"/>
      </g>
    </g>
  </g>
</svg>
