<?xml version="1.0" encoding="UTF-8"?><svg xmlns="http://www.w3.org/2000/svg" xmlns:xlink="http://www.w3.org/1999/xlink" fill-opacity="1" color-rendering="auto" color-interpolation="auto" text-rendering="auto" stroke="black" stroke-linecap="square" stroke-miterlimit="10" shape-rendering="auto" stroke-opacity="1" fill="black" stroke-dasharray="none" font-weight="normal" stroke-width="1" width="31.8em" height="18em" viewBox="0 0 318 180" font-family="'Dialog'" font-style="normal" stroke-linejoin="miter" font-size="12px" stroke-dashoffset="0" image-rendering="auto">
  <!--Generated by ySVG 2.5-->
  <defs id="genericDefs"/>
  <g>
    <defs id="defs1">
      <clipPath clipPathUnits="userSpaceOnUse" id="clipPath1">
        <path d="M0 0 L318 0 L318 180 L0 180 L0 0 Z"/>
      </clipPath>
      <clipPath clipPathUnits="userSpaceOnUse" id="clipPath2">
        <path d="M92 138 L410 138 L410 318 L92 318 L92 138 Z"/>
      </clipPath>
    </defs>
    <g fill="white" text-rendering="geometricPrecision" shape-rendering="geometricPrecision" transform="translate(-92,-138)" stroke="white">
      <rect x="92" width="318" height="180" y="138" clip-path="url(#clipPath2)" stroke="none"/>
    </g>
    <g fill="rgb(255,204,153)" text-rendering="geometricPrecision" shape-rendering="geometricPrecision" transform="matrix(1,0,0,1,-92,-138)" stroke="rgb(255,204,153)">
      <rect x="165" width="30" height="30" y="229" clip-path="url(#clipPath2)" stroke="none"/>
    </g>
    <g text-rendering="geometricPrecision" stroke-miterlimit="1.45" shape-rendering="geometricPrecision" font-family="sans-serif" transform="matrix(1,0,0,1,-92,-138)" stroke-linecap="butt">
      <text x="176.335" xml:space="preserve" y="248.7139" clip-path="url(#clipPath2)" stroke="none">T</text>
      <rect fill="none" x="165" width="30" height="30" y="229" clip-path="url(#clipPath2)"/>
    </g>
    <g fill="rgb(255,204,153)" text-rendering="geometricPrecision" shape-rendering="geometricPrecision" transform="matrix(1,0,0,1,-92,-138)" stroke="rgb(255,204,153)">
      <rect x="195" width="30" height="30" y="229" clip-path="url(#clipPath2)" stroke="none"/>
    </g>
    <g text-rendering="geometricPrecision" stroke-miterlimit="1.45" shape-rendering="geometricPrecision" font-family="sans-serif" transform="matrix(1,0,0,1,-92,-138)" stroke-linecap="butt">
      <text x="206.335" xml:space="preserve" y="248.7139" clip-path="url(#clipPath2)" stroke="none">T</text>
      <rect fill="none" x="195" width="30" height="30" y="229" clip-path="url(#clipPath2)"/>
    </g>
    <g fill="rgb(255,204,153)" text-rendering="geometricPrecision" shape-rendering="geometricPrecision" transform="matrix(1,0,0,1,-92,-138)" stroke="rgb(255,204,153)">
      <rect x="225" width="30" height="30" y="229" clip-path="url(#clipPath2)" stroke="none"/>
    </g>
    <g text-rendering="geometricPrecision" stroke-miterlimit="1.45" shape-rendering="geometricPrecision" font-family="sans-serif" transform="matrix(1,0,0,1,-92,-138)" stroke-linecap="butt">
      <text x="235.998" xml:space="preserve" y="248.7139" clip-path="url(#clipPath2)" stroke="none">A</text>
      <rect fill="none" x="225" width="30" height="30" y="229" clip-path="url(#clipPath2)"/>
    </g>
    <g fill="rgb(255,204,153)" text-rendering="geometricPrecision" shape-rendering="geometricPrecision" transform="matrix(1,0,0,1,-92,-138)" stroke="rgb(255,204,153)">
      <rect x="255" width="30" height="30" y="229" clip-path="url(#clipPath2)" stroke="none"/>
    </g>
    <g text-rendering="geometricPrecision" stroke-miterlimit="1.45" shape-rendering="geometricPrecision" font-family="sans-serif" transform="matrix(1,0,0,1,-92,-138)" stroke-linecap="butt">
      <text x="265.333" xml:space="preserve" y="248.7139" clip-path="url(#clipPath2)" stroke="none">G</text>
      <rect fill="none" x="255" width="30" height="30" y="229" clip-path="url(#clipPath2)"/>
    </g>
    <g fill="rgb(255,204,153)" text-rendering="geometricPrecision" shape-rendering="geometricPrecision" transform="matrix(1,0,0,1,-92,-138)" stroke="rgb(255,204,153)">
      <rect x="285" width="30" height="30" y="229" clip-path="url(#clipPath2)" stroke="none"/>
    </g>
    <g text-rendering="geometricPrecision" stroke-miterlimit="1.45" shape-rendering="geometricPrecision" font-family="sans-serif" transform="matrix(1,0,0,1,-92,-138)" stroke-linecap="butt">
      <text x="296.335" xml:space="preserve" y="248.7139" clip-path="url(#clipPath2)" stroke="none">T</text>
      <rect fill="none" x="285" width="30" height="30" y="229" clip-path="url(#clipPath2)"/>
    </g>
    <g fill="rgb(255,204,153)" text-rendering="geometricPrecision" shape-rendering="geometricPrecision" transform="matrix(1,0,0,1,-92,-138)" stroke="rgb(255,204,153)">
      <rect x="335" width="30" height="30" y="213" clip-path="url(#clipPath2)" stroke="none"/>
    </g>
    <g text-rendering="geometricPrecision" stroke-miterlimit="1.45" shape-rendering="geometricPrecision" font-family="sans-serif" transform="matrix(1,0,0,1,-92,-138)" stroke-linecap="butt">
      <text x="345.998" xml:space="preserve" y="232.7139" clip-path="url(#clipPath2)" stroke="none">A</text>
      <rect fill="none" x="335" width="30" height="30" y="213" clip-path="url(#clipPath2)"/>
      <text x="347.6855" xml:space="preserve" y="172.7139" clip-path="url(#clipPath2)" stroke="none">запись</text>
    </g>
    <g fill="rgb(255,204,153)" text-rendering="geometricPrecision" shape-rendering="geometricPrecision" transform="matrix(1,0,0,1,-92,-138)" stroke="rgb(255,204,153)">
      <rect x="114" width="30" height="30" y="213" clip-path="url(#clipPath2)" stroke="none"/>
    </g>
    <g text-rendering="geometricPrecision" stroke-miterlimit="1.45" shape-rendering="geometricPrecision" font-family="sans-serif" transform="matrix(1,0,0,1,-92,-138)" stroke-linecap="butt">
      <text x="124.998" xml:space="preserve" y="232.7139" clip-path="url(#clipPath2)" stroke="none">A</text>
      <rect fill="none" x="114" width="30" height="30" y="213" clip-path="url(#clipPath2)"/>
    </g>
    <g fill="rgb(255,204,153)" text-rendering="geometricPrecision" shape-rendering="geometricPrecision" transform="matrix(1,0,0,1,-92,-138)" stroke="rgb(255,204,153)">
      <rect x="365" width="30" height="30" y="213" clip-path="url(#clipPath2)" stroke="none"/>
    </g>
    <g text-rendering="geometricPrecision" stroke-miterlimit="1.45" shape-rendering="geometricPrecision" font-family="sans-serif" transform="matrix(1,0,0,1,-92,-138)" stroke-linecap="butt">
      <text x="375.333" xml:space="preserve" y="232.7139" clip-path="url(#clipPath2)" stroke="none">G</text>
      <rect fill="none" x="365" width="30" height="30" y="213" clip-path="url(#clipPath2)"/>
      <text x="109.7871" xml:space="preserve" y="172.7139" clip-path="url(#clipPath2)" stroke="none">чтение</text>
      <text x="216.8994" xml:space="preserve" y="292.7139" clip-path="url(#clipPath2)" stroke="none">очередь</text>
      <path fill="none" d="M129 213 L129 191" clip-path="url(#clipPath2)"/>
      <path d="M129 183 L124 195 L129 192 L134 195 Z" clip-path="url(#clipPath2)" stroke="none"/>
      <path fill="none" d="M366.5 183 L366.5 205" clip-path="url(#clipPath2)"/>
      <path d="M366.5 213 L371.5 201 L366.5 204 L361.5 201 Z" clip-path="url(#clipPath2)" stroke="none"/>
      <path fill="none" d="M325 274 L162 274" clip-path="url(#clipPath2)"/>
      <path d="M154 274 L166 279 L163 274 L166 269 Z" clip-path="url(#clipPath2)" stroke="none"/>
    </g>
  </g>
</svg>
