<?xml version="1.0" encoding="UTF-8"?><svg xmlns="http://www.w3.org/2000/svg" xmlns:xlink="http://www.w3.org/1999/xlink" fill-opacity="1" color-rendering="auto" color-interpolation="auto" text-rendering="auto" stroke="black" stroke-linecap="square" stroke-miterlimit="10" shape-rendering="auto" stroke-opacity="1" fill="black" stroke-dasharray="none" font-weight="normal" stroke-width="1" width="40.5em" height="24em" viewBox="0 0 405 240" font-family="'Dialog'" font-style="normal" stroke-linejoin="miter" font-size="12px" stroke-dashoffset="0" image-rendering="auto">
  <!--Generated by ySVG 2.5-->
  <defs id="genericDefs"/>
  <g>
    <defs id="defs1">
      <clipPath clipPathUnits="userSpaceOnUse" id="clipPath1">
        <path d="M0 0 L405 0 L405 240 L0 240 L0 0 Z"/>
      </clipPath>
      <clipPath clipPathUnits="userSpaceOnUse" id="clipPath2">
        <path d="M65 69 L470 69 L470 309 L65 309 L65 69 Z"/>
      </clipPath>
    </defs>
    <g fill="white" text-rendering="geometricPrecision" shape-rendering="geometricPrecision" transform="translate(-65,-69)" stroke="white">
      <rect x="65" width="405" height="240" y="69" clip-path="url(#clipPath2)" stroke="none"/>
    </g>
    <g fill="rgb(255,255,153)" text-rendering="geometricPrecision" shape-rendering="geometricPrecision" transform="matrix(1,0,0,1,-65,-69)" stroke="rgb(255,255,153)">
      <rect x="110" width="30" height="30" y="204" clip-path="url(#clipPath2)" stroke="none"/>
    </g>
    <g text-rendering="geometricPrecision" stroke-miterlimit="1.45" shape-rendering="geometricPrecision" transform="matrix(1,0,0,1,-65,-69)" stroke-linecap="butt">
      <rect fill="none" x="110" width="30" height="30" y="204" clip-path="url(#clipPath2)"/>
    </g>
    <g fill="rgb(255,204,153)" text-rendering="geometricPrecision" shape-rendering="geometricPrecision" transform="matrix(1,0,0,1,-65,-69)" stroke="rgb(255,204,153)">
      <rect x="140" width="30" height="30" y="204" clip-path="url(#clipPath2)" stroke="none"/>
    </g>
    <g text-rendering="geometricPrecision" stroke-miterlimit="1.45" shape-rendering="geometricPrecision" font-family="sans-serif" transform="matrix(1,0,0,1,-65,-69)" stroke-linecap="butt">
      <text x="150.333" xml:space="preserve" y="223.7139" clip-path="url(#clipPath2)" stroke="none">O</text>
      <rect fill="none" x="140" width="30" height="30" y="204" clip-path="url(#clipPath2)"/>
    </g>
    <g fill="rgb(255,204,153)" text-rendering="geometricPrecision" shape-rendering="geometricPrecision" transform="matrix(1,0,0,1,-65,-69)" stroke="rgb(255,204,153)">
      <rect x="170" width="30" height="30" y="204" clip-path="url(#clipPath2)" stroke="none"/>
    </g>
    <g text-rendering="geometricPrecision" stroke-miterlimit="1.45" shape-rendering="geometricPrecision" font-family="sans-serif" transform="matrix(1,0,0,1,-65,-69)" stroke-linecap="butt">
      <text x="180.667" xml:space="preserve" y="223.7139" clip-path="url(#clipPath2)" stroke="none">U</text>
      <rect fill="none" x="170" width="30" height="30" y="204" clip-path="url(#clipPath2)"/>
    </g>
    <g fill="rgb(255,204,153)" text-rendering="geometricPrecision" shape-rendering="geometricPrecision" transform="matrix(1,0,0,1,-65,-69)" stroke="rgb(255,204,153)">
      <rect x="200" width="30" height="30" y="204" clip-path="url(#clipPath2)" stroke="none"/>
    </g>
    <g text-rendering="geometricPrecision" stroke-miterlimit="1.45" shape-rendering="geometricPrecision" font-family="sans-serif" transform="matrix(1,0,0,1,-65,-69)" stroke-linecap="butt">
      <text x="211.335" xml:space="preserve" y="223.7139" clip-path="url(#clipPath2)" stroke="none">T</text>
      <rect fill="none" x="200" width="30" height="30" y="204" clip-path="url(#clipPath2)"/>
    </g>
    <g fill="rgb(255,204,153)" text-rendering="geometricPrecision" shape-rendering="geometricPrecision" transform="matrix(1,0,0,1,-65,-69)" stroke="rgb(255,204,153)">
      <rect x="230" width="30" height="30" y="204" clip-path="url(#clipPath2)" stroke="none"/>
    </g>
    <g text-rendering="geometricPrecision" stroke-miterlimit="1.45" shape-rendering="geometricPrecision" font-family="sans-serif" transform="matrix(1,0,0,1,-65,-69)" stroke-linecap="butt">
      <text x="240.998" xml:space="preserve" y="223.7139" clip-path="url(#clipPath2)" stroke="none">P</text>
      <rect fill="none" x="230" width="30" height="30" y="204" clip-path="url(#clipPath2)"/>
    </g>
    <g fill="rgb(255,204,153)" text-rendering="geometricPrecision" shape-rendering="geometricPrecision" transform="matrix(1,0,0,1,-65,-69)" stroke="rgb(255,204,153)">
      <rect x="260" width="30" height="30" y="204" clip-path="url(#clipPath2)" stroke="none"/>
    </g>
    <g text-rendering="geometricPrecision" stroke-miterlimit="1.45" shape-rendering="geometricPrecision" font-family="sans-serif" transform="matrix(1,0,0,1,-65,-69)" stroke-linecap="butt">
      <text x="270.667" xml:space="preserve" y="223.7139" clip-path="url(#clipPath2)" stroke="none">U</text>
      <rect fill="none" x="260" width="30" height="30" y="204" clip-path="url(#clipPath2)"/>
    </g>
    <g fill="rgb(255,204,153)" text-rendering="geometricPrecision" shape-rendering="geometricPrecision" transform="matrix(1,0,0,1,-65,-69)" stroke="rgb(255,204,153)">
      <rect x="290" width="30" height="30" y="204" clip-path="url(#clipPath2)" stroke="none"/>
    </g>
    <g text-rendering="geometricPrecision" stroke-miterlimit="1.45" shape-rendering="geometricPrecision" transform="matrix(1,0,0,1,-65,-69)" stroke-linecap="butt">
      <rect fill="none" x="290" width="30" height="30" y="204" clip-path="url(#clipPath2)"/>
    </g>
    <g fill="rgb(255,255,153)" text-rendering="geometricPrecision" shape-rendering="geometricPrecision" transform="matrix(1,0,0,1,-65,-69)" stroke="rgb(255,255,153)">
      <rect x="320" width="30" height="30" y="204" clip-path="url(#clipPath2)" stroke="none"/>
    </g>
    <g text-rendering="geometricPrecision" stroke-miterlimit="1.45" shape-rendering="geometricPrecision" transform="matrix(1,0,0,1,-65,-69)" stroke-linecap="butt">
      <rect fill="none" x="320" width="30" height="30" y="204" clip-path="url(#clipPath2)"/>
      <text x="89.999" xml:space="preserve" y="223.7139" clip-path="url(#clipPath2)" font-family="sans-serif" stroke="none">...</text>
      <text x="359.999" xml:space="preserve" y="223.7139" clip-path="url(#clipPath2)" font-family="sans-serif" stroke="none">...</text>
      <text x="248.3193" xml:space="preserve" y="156.3633" clip-path="url(#clipPath2)" font-family="sans-serif" stroke="none">Текущее положение</text>
      <text x="283.4727" xml:space="preserve" y="171.0645" clip-path="url(#clipPath2)" font-family="sans-serif" stroke="none">головки</text>
      <text x="285.7871" xml:space="preserve" y="283.7139" clip-path="url(#clipPath2)" font-family="sans-serif" stroke="none">чтение</text>
      <text x="286.1855" xml:space="preserve" y="103.7139" clip-path="url(#clipPath2)" font-family="sans-serif" stroke="none">запись</text>
      <text x="388.3594" xml:space="preserve" y="163.7139" clip-path="url(#clipPath2)" font-family="sans-serif" stroke="none">шаг вправо</text>
      <text x="161.4443" xml:space="preserve" y="163.7139" clip-path="url(#clipPath2)" font-family="sans-serif" stroke="none">шаг влево</text>
      <path fill="none" d="M305 174 L305 196" clip-path="url(#clipPath2)"/>
      <path d="M305 204 L310 192 L305 195 L300 192 Z" clip-path="url(#clipPath2)" stroke="none"/>
      <path fill="none" d="M305 234 L305 256" clip-path="url(#clipPath2)"/>
      <path d="M305 264 L310 252 L305 255 L300 252 Z" clip-path="url(#clipPath2)" stroke="none"/>
      <path fill="none" d="M305 114 L305 136" clip-path="url(#clipPath2)" stroke="rgb(153,51,0)"/>
      <path fill="rgb(153,51,0)" d="M305 144 L310 132 L305 135 L300 132 Z" clip-path="url(#clipPath2)" stroke="none"/>
      <path fill="none" d="M355 159 L376.9883 159" clip-path="url(#clipPath2)" stroke="blue"/>
      <path fill="blue" d="M384.9883 159 L372.9883 154 L375.9883 159 L372.9883 164 Z" clip-path="url(#clipPath2)" stroke="none"/>
      <path fill="none" d="M255 159 L233 159" clip-path="url(#clipPath2)" stroke="blue"/>
      <path fill="blue" d="M225 159 L237 164 L234 159 L237 154 Z" clip-path="url(#clipPath2)" stroke="none"/>
    </g>
  </g>
</svg>
